<svg xmlns="http://www.w3.org/2000/svg" width="2000" viewBox="0 0 1500 1500" height="2000" version="1.0"><defs><clipPath id="b"><path d="M.473.473h1089.086v1089.086H.473Zm0 0"/></clipPath><clipPath id="a"><path d="M0 0h1090v1090H0z"/></clipPath></defs><g clip-path="url(#a)" transform="translate(205 205)"><g clip-path="url(#b)"><path fill="#fff" d="M272.734.473v272.261H.473V.473Zm544.528 544.523V272.734H544.996v272.262ZM544.996.473H272.734l272.262 272.261ZM272.734 272.734v272.262l272.262-272.262ZM817.262.473v272.261L1089.523.473Zm272.261 544.523V272.734H817.262Zm-1089.05 0v272.266h272.261V544.996Zm544.523 544.527h272.266V817.262H544.996ZM272.734 544.996l272.262 272.266V544.996Zm0 544.527 272.262-272.261H272.734Zm544.528-272.261 272.261-272.266H817.262Zm272.261 0H817.262l272.261 272.261Zm0 0"/></g></g></svg>
